HIERARCHY
ROOT hip
{
  OFFSET 0.00112043 5.09927 -9.65472
  CHANNELS 6 Xposition Yposition Zposition Zrotation Xrotation Yrotation
  JOINT abdomen
  {
    OFFSET 0 -1.186 -1.5018
    CHANNELS 3 Zrotation Xrotation Yrotation
    JOINT abdomen2
    {
      OFFSET 0 9.964 0.2134
      CHANNELS 3 Zrotation Xrotation Yrotation
      JOINT chest
      {
        OFFSET 0 13.134 -3.2573
        CHANNELS 3 Zrotation Xrotation Yrotation
        JOINT neck
        {
          OFFSET 0 20.686 -1.6905
          CHANNELS 3 Zrotation Xrotation Yrotation
          JOINT head
          {
            OFFSET 0 7.238 -0.1237
            CHANNELS 3 Zrotation Xrotation Yrotation
            End Site
            {
              OFFSET 0 0 0
            }
          }
        }
        JOINT lCollar
        {
          OFFSET 1.7069 20.075 5.0056
          CHANNELS 3 Zrotation Xrotation Yrotation
          JOINT lShldr
          {
            OFFSET 13.6458 -0.047 -4.849
            CHANNELS 3 Zrotation Xrotation Yrotation
            JOINT lForeArm
            {
              OFFSET 28.3255 -0.9759 2.2888
              CHANNELS 3 Zrotation Xrotation Yrotation
              JOINT lHand
              {
                OFFSET 22.1583 -0.53 10.8316
                CHANNELS 3 Zrotation Xrotation Yrotation
                JOINT lThumb1
                {
                  OFFSET 0.786 0.112 2.5817
                  CHANNELS 3 Zrotation Xrotation Yrotation
                  JOINT lThumb2
                  {
                    OFFSET 0.3601 -0.878 4.2331
                    CHANNELS 3 Zrotation Xrotation Yrotation
                    JOINT lThumb2_End
                    {
                      OFFSET 1.8127 -1.216 2.2227
                      CHANNELS 3 Zrotation Xrotation Yrotation
                      End Site
                      {
                        OFFSET 0.0181 -0.0122 0.0222
                      }
                    }
                  }
                }
                JOINT lCarpal1
                {
                  OFFSET 0.9571 1.114 1.7695
                  CHANNELS 3 Zrotation Xrotation Yrotation
                  JOINT lIndex1
                  {
                    OFFSET 4.1246 0.487 4.1451
                    CHANNELS 3 Zrotation Xrotation Yrotation
                    JOINT lIndex2
                    {
                      OFFSET 3.4052 -1.454 2.7682
                      CHANNELS 3 Zrotation Xrotation Yrotation
                      JOINT lIndex2_End
                      {
                        OFFSET 1.4531 -1.795 1.2713
                        CHANNELS 3 Zrotation Xrotation Yrotation
                        End Site
                        {
                          OFFSET 0.0145 -0.0179 0.0127
                        }
                      }
                    }
                  }
                  JOINT lMid1
                  {
                    OFFSET 5.6954 0.21 2.1184
                    CHANNELS 3 Zrotation Xrotation Yrotation
                    JOINT lMid2
                    {
                      OFFSET 3.9766 -1.54 2.3863
                      CHANNELS 3 Zrotation Xrotation Yrotation
                      JOINT lMid2_End
                      {
                        OFFSET 1.4042 -1.926 1.125
                        CHANNELS 3 Zrotation Xrotation Yrotation
                        End Site
                        {
                          OFFSET 0.014 -0.0193 0.0113
                        }
                      }
                    }
                  }
                }
                JOINT lCarpal2
                {
                  OFFSET 2.0956 0.66 -0.3894
                  CHANNELS 3 Zrotation Xrotation Yrotation
                  JOINT lRing1
                  {
                    OFFSET 5.0395 -0.09 2.4971
                    CHANNELS 3 Zrotation Xrotation Yrotation
                    JOINT lRing2
                    {
                      OFFSET 3.7921 -1.552 1.4806
                      CHANNELS 3 Zrotation Xrotation Yrotation
                      JOINT lRing2_End
                      {
                        OFFSET 1.4655 -1.808 0.9609
                        CHANNELS 3 Zrotation Xrotation Yrotation
                        End Site
                        {
                          OFFSET 0.0147 -0.0181 0.0096
                        }
                      }
                    }
                  }
                  JOINT lPinky1
                  {
                    OFFSET 4.9141 -1.269 0.3591
                    CHANNELS 3 Zrotation Xrotation Yrotation
                    JOINT lPinky2
                    {
                      OFFSET 3.1477 -1.685 0.8462
                      CHANNELS 3 Zrotation Xrotation Yrotation
                      JOINT lPinky2_End
                      {
                        OFFSET 0.8055 -1.585 0.7955
                        CHANNELS 3 Zrotation Xrotation Yrotation
                        End Site
                        {
                          OFFSET 0.0081 -0.0158 0.008
                        }
                      }
                    }
                  }
                }
              }
            }
          }
        }
        JOINT rCollar
        {
          OFFSET -1.7069 20.075 5.0056
          CHANNELS 3 Zrotation Xrotation Yrotation
          JOINT rShldr
          {
            OFFSET -13.6458 -0.047 -4.849
            CHANNELS 3 Zrotation Xrotation Yrotation
            JOINT rForeArm
            {
              OFFSET -28.3255 -0.9759 2.2888
              CHANNELS 3 Zrotation Xrotation Yrotation
              JOINT rHand
              {
                OFFSET -22.1583 -0.53 10.8316
                CHANNELS 3 Zrotation Xrotation Yrotation
                JOINT rThumb1
                {
                  OFFSET -0.786 0.112 2.5817
                  CHANNELS 3 Zrotation Xrotation Yrotation
                  JOINT rThumb2
                  {
                    OFFSET -0.3601 -0.878 4.2331
                    CHANNELS 3 Zrotation Xrotation Yrotation
                    JOINT rThumb2_End
                    {
                      OFFSET -1.8127 -1.216 2.2227
                      CHANNELS 3 Zrotation Xrotation Yrotation
                      End Site
                      {
                        OFFSET -0.0181 -0.0122 0.0222
                      }
                    }
                  }
                }
                JOINT rCarpal1
                {
                  OFFSET -0.9571 1.114 1.7695
                  CHANNELS 3 Zrotation Xrotation Yrotation
                  JOINT rIndex1
                  {
                    OFFSET -4.1246 0.487 4.1451
                    CHANNELS 3 Zrotation Xrotation Yrotation
                    JOINT rIndex2
                    {
                      OFFSET -3.4052 -1.454 2.7682
                      CHANNELS 3 Zrotation Xrotation Yrotation
                      JOINT rIndex2_End
                      {
                        OFFSET -1.4531 -1.795 1.2713
                        CHANNELS 3 Zrotation Xrotation Yrotation
                        End Site
                        {
                          OFFSET -0.0145 -0.018 0.0127
                        }
                      }
                    }
                  }
                  JOINT rMid1
                  {
                    OFFSET -5.6954 0.21 2.1184
                    CHANNELS 3 Zrotation Xrotation Yrotation
                    JOINT rMid2
                    {
                      OFFSET -3.9766 -1.54 2.3863
                      CHANNELS 3 Zrotation Xrotation Yrotation
                      JOINT rMid2_End
                      {
                        OFFSET -1.4042 -1.926 1.125
                        CHANNELS 3 Zrotation Xrotation Yrotation
                        End Site
                        {
                          OFFSET -0.014 -0.0193 0.0113
                        }
                      }
                    }
                  }
                }
                JOINT rCarpal2
                {
                  OFFSET -2.0956 0.66 -0.3894
                  CHANNELS 3 Zrotation Xrotation Yrotation
                  JOINT rRing1
                  {
                    OFFSET -5.0395 -0.09 2.4971
                    CHANNELS 3 Zrotation Xrotation Yrotation
                    JOINT rRing2
                    {
                      OFFSET -3.7921 -1.552 1.4806
                      CHANNELS 3 Zrotation Xrotation Yrotation
                      JOINT rRing2_End
                      {
                        OFFSET -1.4655 -1.808 0.9609
                        CHANNELS 3 Zrotation Xrotation Yrotation
                        End Site
                        {
                          OFFSET -0.0147 -0.0181 0.0096
                        }
                      }
                    }
                  }
                  JOINT rPinky1
                  {
                    OFFSET -4.9141 -1.269 0.3592
                    CHANNELS 3 Zrotation Xrotation Yrotation
                    JOINT rPinky2
                    {
                      OFFSET -3.1477 -1.685 0.8462
                      CHANNELS 3 Zrotation Xrotation Yrotation
                      JOINT rPinky2_End
                      {
                        OFFSET -0.8055 -1.585 0.7955
                        CHANNELS 3 Zrotation Xrotation Yrotation
                        End Site
                        {
                          OFFSET -0.0081 -0.0158 0.008
                        }
                      }
                    }
                  }
                }
              }
            }
          }
        }
      }
    }
  }
  JOINT lThigh
  {
    OFFSET 8.367 -8.2066 0.5982
    CHANNELS 3 Zrotation Xrotation Yrotation
    JOINT lShin
    {
      OFFSET 2.1923 -43.463 -0.4932
      CHANNELS 3 Zrotation Xrotation Yrotation
      JOINT lFoot
      {
        OFFSET 0.7333 -45.8593 -2.6451
        CHANNELS 3 Zrotation Xrotation Yrotation
        End Site
        {
          OFFSET 2.6618 -4.2699 12.3931
        }
      }
    }
  }
  JOINT rThigh
  {
    OFFSET -8.367 -8.2066 0.5982
    CHANNELS 3 Zrotation Xrotation Yrotation
    JOINT rShin
    {
      OFFSET -2.1923 -43.463 -0.4931
      CHANNELS 3 Zrotation Xrotation Yrotation
      JOINT rFoot
      {
        OFFSET -0.7333 -45.8593 -2.6451
        CHANNELS 3 Zrotation Xrotation Yrotation
        End Site
        {
          OFFSET -2.6618 -4.2699 12.3931
        }
      }
    }
  }
}
MOTION
Frames:	5
Frame Time:	0.0333333
17.1264 -7.11202 4.58941 -180 -64.9956 -180 0 20.7994 -0 0 41.5988 -0 0 41.5988 -0 0 30.9998 -0 -0 -66.0238 -0 0 3.39935e-006 -0 -74.353 0.227803 10.7524 -0.60133 -1.41207 -65.1954 23.4734 -8.8385 2.27096 3.18055e-015 -4.77083e-015 3.18055e-015 -0 -3.18055e-015 -0 -0 -3.18055e-015 -0 6.36111e-015 1.59028e-015 -0 -3.18055e-015 -7.95139e-015 3.18055e-015 -3.18055e-015 -4.77083e-015 6.36111e-015 3.53113e-031 -3.18055e-015 6.36111e-015 -3.18055e-015 -7.95139e-015 3.18055e-015 -3.18055e-015 -4.77083e-015 6.36111e-015 3.53113e-031 -3.18055e-015 6.36111e-015 6.36111e-015 1.59028e-015 -0 -3.18055e-015 -7.95139e-015 3.18055e-015 -3.18055e-015 -4.77083e-015 6.36111e-015 3.53113e-031 -3.18055e-015 6.36111e-015 -3.18055e-015 -7.95139e-015 3.18055e-015 -3.18055e-015 -4.77083e-015 6.36111e-015 3.53113e-031 -3.18055e-015 6.36111e-015 6.31977 2.82557 17.6571 46.5234 14.8539 55.2337 2.8623 2.79901 -10.7784 30.5272 6.71573 -17.2877 6.36111e-015 -6.36111e-015 3.18055e-015 2.61071e-006 7.95786e-007 2.28199e-006 -0 0 1.59028e-015 3.18055e-015 -3.18055e-015 4.77083e-015 3.18055e-015 -6.36111e-015 -1.59028e-015 2.61071e-006 7.95786e-007 2.28199e-006 0 0 -0 3.18055e-015 -6.36111e-015 -1.59028e-015 2.61071e-006 7.95786e-007 2.28199e-006 0 0 -0 3.18055e-015 -3.18055e-015 4.77083e-015 3.18055e-015 -6.36111e-015 -1.59028e-015 2.61071e-006 7.95786e-007 2.28199e-006 0 0 -0 3.18055e-015 -6.36111e-015 -1.59028e-015 2.61071e-006 7.95786e-007 2.28199e-006 0 0 -0 44.8969 -42.2761 17.8643 178.81 49.8627 -169.87 6.22198 11.6674 5.2519 -56.3668 -40.4272 -26.6587 -178.769 54.4871 170.569 -5.48428 28.7972 -3.99342 
17.1497 -7.13327 5.25568 -180 -64.9956 -180 0 20.7994 -0 0 41.5988 -0 0 41.5988 -0 0 30.9997 -0 -0 -65.3064 -0 0 3.39935e-006 -0 -74.353 0.227803 10.7524 -0.60133 -1.41207 -65.1954 23.4734 -8.8385 2.27096 3.18055e-015 -4.77083e-015 3.18055e-015 -0 -3.18055e-015 -0 -0 -3.18055e-015 -0 6.36111e-015 1.59028e-015 -0 -3.18055e-015 -7.95139e-015 3.18055e-015 -3.18055e-015 -4.77083e-015 6.36111e-015 3.53113e-031 -3.18055e-015 6.36111e-015 -3.18055e-015 -7.95139e-015 3.18055e-015 -3.18055e-015 -4.77083e-015 6.36111e-015 3.53113e-031 -3.18055e-015 6.36111e-015 6.36111e-015 1.59028e-015 -0 -3.18055e-015 -7.95139e-015 3.18055e-015 -3.18055e-015 -4.77083e-015 6.36111e-015 3.53113e-031 -3.18055e-015 6.36111e-015 -3.18055e-015 -7.95139e-015 3.18055e-015 -3.18055e-015 -4.77083e-015 6.36111e-015 3.53113e-031 -3.18055e-015 6.36111e-015 6.70792 3.00447 17.6896 46.6363 15.0636 54.7968 2.86231 2.79901 -10.7784 32.1492 8.7796 -18.5138 -3.18055e-015 0 -0 0 6.36111e-015 -0 -3.18055e-015 3.18055e-015 -0 -3.18055e-015 0 -0 -6.36111e-015 1.90833e-014 1.59028e-015 -6.36111e-015 0 -0 -3.53113e-031 6.36111e-015 3.18055e-015 -6.36111e-015 1.90833e-014 1.59028e-015 -6.36111e-015 0 -0 -3.53113e-031 6.36111e-015 3.18055e-015 -3.18055e-015 0 -0 -6.36111e-015 1.90833e-014 1.59028e-015 -6.36111e-015 0 -0 -3.53113e-031 6.36111e-015 3.18055e-015 -6.36111e-015 1.90833e-014 1.59028e-015 -6.36111e-015 0 -0 -3.53113e-031 6.36111e-015 3.18055e-015 46.2535 -42.6775 19.5193 178.801 48.4147 -169.608 6.21462 11.9699 5.42356 -58.4162 -40.7002 -28.9282 -178.727 53.3893 170.53 -5.36807 28.9681 -4.06511 
17.1737 -7.15706 5.92265 -180 -64.9956 -180 0 20.7994 -0 0 41.5988 -0 0 41.5988 -0 0 30.9998 -0 -0 -64.588 -0 0 3.39935e-006 -0 -74.353 0.227803 10.7524 -0.60133 -1.41207 -65.1954 23.4734 -8.8385 2.27096 3.18055e-015 -4.77083e-015 3.18055e-015 -0 -3.18055e-015 -0 -0 -3.18055e-015 -0 6.36111e-015 1.59028e-015 -0 -3.18055e-015 -7.95139e-015 3.18055e-015 -3.18055e-015 -4.77083e-015 6.36111e-015 3.53113e-031 -3.18055e-015 6.36111e-015 -3.18055e-015 -7.95139e-015 3.18055e-015 -3.18055e-015 -4.77083e-015 6.36111e-015 3.53113e-031 -3.18055e-015 6.36111e-015 6.36111e-015 1.59028e-015 -0 -3.18055e-015 -7.95139e-015 3.18055e-015 -3.18055e-015 -4.77083e-015 6.36111e-015 3.53113e-031 -3.18055e-015 6.36111e-015 -3.18055e-015 -7.95139e-015 3.18055e-015 -3.18055e-015 -4.77083e-015 6.36111e-015 3.53113e-031 -3.18055e-015 6.36111e-015 7.09601 3.18357 17.7209 46.7508 15.2724 54.359 2.86229 2.79902 -10.7784 33.8227 10.8041 -19.8041 -3.18055e-015 -6.36111e-015 -0 -3.18055e-015 0 -7.95139e-016 -3.18055e-015 0 -0 4.41391e-032 -3.18055e-015 7.95139e-016 1.05934e-030 -6.36111e-015 9.54166e-015 -6.36111e-015 0 -7.95139e-016 -3.18055e-015 -6.36111e-015 -3.18055e-015 1.05934e-030 -6.36111e-015 9.54166e-015 -6.36111e-015 0 -7.95139e-016 -3.18055e-015 -6.36111e-015 -3.18055e-015 4.41391e-032 -3.18055e-015 7.95139e-016 1.05934e-030 -6.36111e-015 9.54166e-015 -6.36111e-015 0 -7.95139e-016 -3.18055e-015 -6.36111e-015 -3.18055e-015 1.05934e-030 -6.36111e-015 9.54166e-015 -6.36111e-015 0 -7.95139e-016 -3.18055e-015 -6.36111e-015 -3.18055e-015 47.6462 -43.0781 21.2297 178.788 46.967 -169.327 6.21075 12.2941 5.60553 -60.4095 -41.0135 -31.1691 -178.783 52.2544 170.489 -5.2518 29.16 -4.13913 
17.1983 -7.18336 6.5903 -180 -64.9956 -180 0 20.7994 -0 0 41.5988 -0 0 41.5988 -0 0 30.9998 -0 -0 -63.8686 -0 0 3.39935e-006 -0 -74.353 0.227803 10.7524 -0.60133 -1.41207 -65.1954 23.4734 -8.8385 2.27096 3.18055e-015 -4.77083e-015 3.18055e-015 -0 -3.18055e-015 -0 -0 -3.18055e-015 -0 6.36111e-015 1.59028e-015 -0 -3.18055e-015 -7.95139e-015 3.18055e-015 -3.18055e-015 -4.77083e-015 6.36111e-015 3.53113e-031 -3.18055e-015 6.36111e-015 -3.18055e-015 -7.95139e-015 3.18055e-015 -3.18055e-015 -4.77083e-015 6.36111e-015 3.53113e-031 -3.18055e-015 6.36111e-015 6.36111e-015 1.59028e-015 -0 -3.18055e-015 -7.95139e-015 3.18055e-015 -3.18055e-015 -4.77083e-015 6.36111e-015 3.53113e-031 -3.18055e-015 6.36111e-015 -3.18055e-015 -7.95139e-015 3.18055e-015 -3.18055e-015 -4.77083e-015 6.36111e-015 3.53113e-031 -3.18055e-015 6.36111e-015 7.48406 3.36287 17.7511 46.8671 15.4804 53.9204 2.86228 2.799 -10.7784 35.5495 12.784 -21.1597 -3.18055e-015 -3.18055e-015 -1.27222e-014 8.63851e-006 6.46152e-006 4.9475e-006 -4.32599e-006 3.34453e-006 -2.14926e-006 -8.82781e-032 -3.18055e-015 -1.59028e-015 -6.36111e-015 -3.18055e-015 -1.19271e-014 8.63851e-006 6.46152e-006 4.9475e-006 -4.32599e-006 3.34453e-006 -2.14926e-006 -6.36111e-015 -3.18055e-015 -1.19271e-014 8.63851e-006 6.46152e-006 4.9475e-006 -4.32599e-006 3.34453e-006 -2.14926e-006 -8.82781e-032 -3.18055e-015 -1.59028e-015 -6.36111e-015 -3.18055e-015 -1.19271e-014 8.63851e-006 6.46152e-006 4.9475e-006 -4.32599e-006 3.34453e-006 -2.14926e-006 -6.36111e-015 -3.18055e-015 -1.19271e-014 8.63851e-006 6.46152e-006 4.9475e-006 -4.32599e-006 3.34453e-006 -2.14926e-006 49.0795 -43.4773 23.0014 178.772 45.5208 -169.025 6.21086 12.6421 5.79886 -62.4631 -41.2658 -33.4578 -178.807 51.1291 170.44 -5.13572 29.3743 -4.21606 
17.2233 -7.21211 7.25864 -180 -64.9956 -180 0 20.7994 -0 0 41.5988 -0 0 41.5988 -0 0 30.9999 -0 -0 -63.1485 -0 0 3.39935e-006 -0 -74.353 0.227803 10.7524 -0.60133 -1.41207 -65.1954 23.4734 -8.8385 2.27096 3.18055e-015 -4.77083e-015 3.18055e-015 -0 -3.18055e-015 -0 -0 -3.18055e-015 -0 6.36111e-015 1.59028e-015 -0 -3.18055e-015 -7.95139e-015 3.18055e-015 -3.18055e-015 -4.77083e-015 6.36111e-015 3.53113e-031 -3.18055e-015 6.36111e-015 -3.18055e-015 -7.95139e-015 3.18055e-015 -3.18055e-015 -4.77083e-015 6.36111e-015 3.53113e-031 -3.18055e-015 6.36111e-015 6.36111e-015 1.59028e-015 -0 -3.18055e-015 -7.95139e-015 3.18055e-015 -3.18055e-015 -4.77083e-015 6.36111e-015 3.53113e-031 -3.18055e-015 6.36111e-015 -3.18055e-015 -7.95139e-015 3.18055e-015 -3.18055e-015 -4.77083e-015 6.36111e-015 3.53113e-031 -3.18055e-015 6.36111e-015 7.87204 3.54234 17.7799 46.9852 15.6875 53.4809 2.86228 2.79902 -10.7784 37.3313 14.7144 -22.5817 -1.70157e-007 8.16107e-008 -1.49731e-006 -1.5052e-006 -2.21194e-006 3.22347e-006 4.77083e-015 -6.36111e-015 -0 4.77083e-015 0 -0 -1.70157e-007 8.16107e-008 -1.49731e-006 -1.5052e-006 -2.21194e-006 3.22347e-006 1.59028e-015 -3.18055e-015 7.95139e-016 -1.70157e-007 8.16107e-008 -1.49731e-006 -1.5052e-006 -2.21194e-006 3.22347e-006 1.59028e-015 -3.18055e-015 7.95139e-016 4.77083e-015 0 -0 -1.70157e-007 8.16107e-008 -1.49731e-006 -1.5052e-006 -2.21194e-006 3.22347e-006 1.59028e-015 -3.18055e-015 7.95139e-016 -1.70157e-007 8.16107e-008 -1.49731e-006 -1.5052e-006 -2.21194e-006 3.22347e-006 1.59028e-015 -3.18055e-015 7.95139e-016 50.5557 -43.8763 24.8393 178.752 44.0758 -168.7 6.21547 13.0158 6.00469 -64.5588 -41.4705 -35.7822 -178.82 50.006 170.385 -5.02004 29.6119 -4.29646 
